<svg width="168" height="50" viewBox="0 0 168 50" fill="none" xmlns="http://www.w3.org/2000/svg">
<g clip-path="url(#clip0_87_8840)">
<path fill-rule="evenodd" clip-rule="evenodd" d="M39.1284 43.9042H27.8852C28.1604 44.8977 28.1121 45.9854 27.6943 47.0937C27.5807 47.3966 27.4382 47.6972 27.2741 47.9863L38.9716 47.9976C39.0876 47.9976 39.1841 47.837 39.201 47.6168C39.276 46.5567 39.329 45.469 39.358 44.3607C39.3628 44.2368 39.3385 44.1265 39.2951 44.0371C39.2517 43.95 39.1937 43.904 39.1284 43.904V43.9042ZM23.9045 47.9771C1.79226 37.0848 3.73421 12.1862 23.1099 9.18272C23.2403 9.16201 23.3634 9.22638 23.4141 9.34102C23.4648 9.4581 23.4263 9.59101 23.3176 9.6646C8.58897 19.6323 10.5768 34.547 24.0737 42.7959C27.4092 44.8267 24.3102 48.3189 23.9045 47.9771ZM39.167 42.3072C37.8119 33.005 23.3079 29.4529 25.6025 22.2665C28.3318 25.1231 28.6893 26.36 33.0489 26.1398C37.1186 25.9355 38.1645 31.4401 42.0339 26.78C46.722 20.0225 31.1336 17.9391 28.9767 8.62986C28.9212 8.38891 28.5443 8.36369 28.3271 8.49677C27.6024 8.93499 26.5373 10.4448 24.7934 11.6266C19.6174 15.1281 15.3204 20.3598 15.6804 26.6881C16.0209 32.6723 20.3348 37.5369 25.448 40.6575C26.2933 41.1738 26.9526 41.8163 27.4092 42.5414H38.9544C39.0171 42.5414 39.0751 42.5184 39.1162 42.4727C39.1574 42.4222 39.1767 42.3671 39.167 42.3074V42.3072ZM3.35494 18.6708C2.53131 19.5726 1.0749 19.7746 0 19.1619C12.6321 -3.50177 45.9418 -4.20389 43.9035 7.4114C43.8913 7.4916 43.8189 7.54901 43.7392 7.58572C43.6571 7.62016 43.5749 7.62695 43.4904 7.5972C40.6281 6.58768 18.9942 0.201948 3.35477 18.6709L3.35494 18.6708Z" fill="white"/>
<path d="M148.584 41.6521C147.864 41.5946 147.159 42.3024 144.4 39.8434C142.941 38.5425 141.739 36.603 140.797 34.9237C142.655 33.5433 145.787 31.2751 147.43 29.7616C148.695 28.5959 146.87 26.5473 145.389 27.8786C143.906 29.2117 140.287 31.9517 138.569 33.2622C138.611 30.9477 138.575 29.5562 138.707 26.9571L139.145 21.602C139.263 20.0135 136.335 19.7934 136.243 21.5717C135.876 28.6968 135.535 35.7041 135.535 42.9715C135.535 44.6038 138.478 44.6595 138.437 42.9715C138.437 40.8162 138.464 38.6573 138.505 36.4967C142.682 44.7466 148.256 44.659 149.226 43.0729C149.56 42.5275 149.314 41.7106 148.584 41.6523L148.584 41.6521ZM68.7284 37.1845C68.7284 40.8983 70.621 44.1604 74.9009 44.1604C77.0554 44.1604 78.5616 43.0893 79.7303 41.439L80.0173 41.0335L80.0992 41.5163C80.2862 42.6196 80.9297 43.6776 82.0301 44.1517C82.9541 44.5497 83.9721 44.4114 84.6891 43.7089C85.4212 42.9918 85.5136 40.9429 84.0265 41.6262C83.3668 41.9294 83.091 41.6107 82.8635 41.0187C82.1104 39.0581 82.6214 36.337 82.966 34.3162C83.3784 31.8981 82.3724 29.7602 80.1129 28.5879C78.0509 27.518 75.4135 27.526 73.367 28.6274C70.2534 30.3034 68.7286 33.8997 68.7286 37.1844L68.7284 37.1845ZM72.0705 37.032C72.0705 34.3547 73.4111 30.4015 76.8229 30.4015C78.0575 30.4015 79.4481 30.6269 79.7874 31.9492C80.0288 32.889 79.6872 34.2558 79.5388 35.2146C79.1939 37.4399 78.3019 41.5271 75.2531 41.5271C72.6313 41.5271 72.0705 39.0461 72.0705 37.032ZM52.1381 23.951C51.7232 23.0645 51.9702 21.921 52.7669 21.5564C56.9458 19.6445 63.6535 16.7466 70.3206 16.4801C71.8753 16.418 73.1781 17.324 73.1612 19.0805C73.1541 19.826 73.2866 20.6718 72.8205 20.6469C68.7904 20.4322 66.5564 20.2788 62.5586 20.9681C58.5792 21.654 56.1206 22.6379 52.6476 24.1899C52.4425 24.2816 52.2402 24.1617 52.1381 23.9512V23.951ZM101.641 41.6523C100.921 41.5947 100.216 42.3026 97.4566 39.8436C95.9973 38.5427 94.7956 36.6032 93.8534 34.9239C95.7118 33.5435 98.844 31.2753 100.487 29.7618C101.752 28.5961 99.9267 26.5475 98.4454 27.8788C96.9625 29.2119 93.3439 31.9519 91.6258 33.2623C91.6673 30.9479 91.6319 29.5564 91.7635 26.9573L92.2018 21.6022C92.32 20.0137 89.3914 19.7936 89.2999 21.5719C88.933 28.697 88.5916 35.7043 88.5916 42.9717C88.5916 44.604 91.535 44.6596 91.4936 42.9717C91.4936 40.8164 91.5207 38.6575 91.5617 36.4969C95.7393 44.7468 101.312 44.6591 102.283 43.0731C102.616 42.5277 102.371 41.7108 101.641 41.6525L101.641 41.6523ZM64.4434 21.5635H63.8596C62.2986 21.5635 61.0145 22.7247 60.9235 24.2028C60.5817 29.6799 60.3872 37.0076 60.6121 42.5801C60.696 44.6621 64.0641 44.4745 63.9504 42.5801L63.8768 36.5971C63.8768 31.6025 64.0727 26.528 64.4432 21.5635H64.4434ZM99.2218 23.9512C98.807 23.0647 99.0537 21.9212 99.8505 21.5566C104.029 19.6447 110.737 16.7468 117.404 16.4803C118.959 16.4182 120.261 17.3242 120.245 19.0807C120.238 19.8263 120.37 20.672 119.904 20.6471C115.874 20.4324 113.64 20.279 109.642 20.9682C105.665 21.6538 103.203 22.6381 99.7313 24.1901C99.528 24.281 99.3217 24.1631 99.222 23.9514L99.2218 23.9512ZM111.491 21.5635H110.903C109.347 21.5635 108.062 22.7247 107.971 24.2028C107.612 30.0078 107.46 36.7171 107.656 42.5801C107.725 44.6468 111.117 44.4857 110.994 42.5801L110.925 36.5971C110.925 31.5477 111.117 26.5767 111.491 21.5635H111.491ZM115.798 37.1847C115.798 40.8985 117.69 44.1605 121.97 44.1605C124.125 44.1605 125.631 43.0894 126.799 41.4392L127.086 41.0337L127.168 41.5164C127.355 42.6197 127.999 43.6778 129.099 44.1518C130.023 44.5499 131.041 44.4116 131.758 43.7091C132.49 42.992 132.582 40.9431 131.095 41.6264C130.436 41.9296 130.16 41.6109 129.932 41.0189C129.179 39.0583 129.69 36.3372 130.035 34.3164C130.447 31.8983 129.441 29.7604 127.182 28.5881C125.12 27.5182 122.482 27.5262 120.436 28.6276C117.322 30.3035 115.797 33.8999 115.797 37.1845L115.798 37.1847ZM119.14 37.0321C119.14 34.3548 120.48 30.4017 123.892 30.4017C125.127 30.4017 126.517 30.6271 126.857 31.9494C127.098 32.8892 126.756 34.256 126.608 35.2147C126.263 37.4401 125.371 41.5272 122.322 41.5272C119.7 41.5272 119.14 39.0463 119.14 37.0321ZM151.524 37.1847C151.524 40.8985 153.417 44.1605 157.697 44.1605C159.851 44.1605 161.358 43.0894 162.526 41.4392L162.813 41.0337L162.895 41.5164C163.082 42.6197 163.726 43.6778 164.826 44.1518C165.75 44.5499 166.768 44.4116 167.485 43.7091C168.217 42.992 168.309 40.9431 166.822 41.6264C166.162 41.9296 165.887 41.6109 165.659 41.0189C164.906 39.0583 165.417 36.3372 165.762 34.3164C166.174 31.8983 165.168 29.7604 162.909 28.5881C160.847 27.5182 158.209 27.5262 156.163 28.6276C153.049 30.3035 151.524 33.8999 151.524 37.1845L151.524 37.1847ZM154.867 37.0321C154.867 34.3548 156.207 30.4017 159.619 30.4017C160.854 30.4017 162.244 30.6271 162.584 31.9494C162.825 32.8892 162.483 34.256 162.335 35.2147C161.99 37.4401 161.098 41.5272 158.049 41.5272C155.427 41.5272 154.867 39.0463 154.867 37.0321Z" fill="white"/>
</g>
<defs>
<clipPath id="clip0_87_8840">
<rect width="168" height="50" fill="white" transform="translate(0 0.000427246)"/>
</clipPath>
</defs>
</svg>
